<svg version="1.1" id="Layer_1" xmlns="http://www.w3.org/2000/svg" xmlns:xlink="http://www.w3.org/1999/xlink" x="0px" y="0px"
	 width='60' height='60' viewBox="0 0 180 180" enable-background="new 0 0 180 180" xml:space="preserve">
<path fill="#219CEE" opacity="1.000000" stroke="none" 
	d="
M0.999996,172.000000 
	C1.000000,118.312439 1.000000,64.624878 1.240463,10.799591 
	C3.523055,8.415744 5.579106,6.182049 7.600630,3.917532 
	C8.438466,2.978985 9.202437,1.974499 10.000000,1.000000 
	C63.687561,1.000000 117.375122,1.000000 171.200409,1.240469 
	C173.584229,3.523082 175.817902,5.579161 178.082413,7.600698 
	C179.020950,8.438537 180.025482,9.202463 181.000000,10.000002 
	C181.000000,63.687561 181.000000,117.375122 180.759521,171.200409 
	C178.476898,173.584229 176.420822,175.817917 174.399292,178.082443 
	C173.561447,179.020966 172.797531,180.025482 172.000000,181.000000 
	C118.312439,181.000000 64.624878,181.000000 10.799589,180.759537 
	C8.415739,178.476944 6.182052,176.420868 3.917516,174.399368 
	C2.978981,173.561523 1.974488,172.797562 0.999996,172.000000 
M54.704071,52.206486 
	C53.694408,53.313103 52.657059,54.395840 51.679161,55.529850 
	C31.157433,79.327553 34.730209,116.162407 59.266117,133.862335 
	C80.446480,149.141617 109.471092,145.856781 129.974182,135.131439 
	C131.500275,134.333115 132.655441,131.427307 132.715576,129.462433 
	C133.005859,119.977615 132.778015,110.478432 132.899704,100.986465 
	C132.990402,93.912659 134.600281,92.077118 141.484528,90.251915 
	C142.309113,90.033302 143.048538,89.493523 144.055420,88.988182 
	C139.590424,86.160240 106.400093,86.675751 104.213745,89.598068 
	C105.752716,89.961098 107.163216,90.328743 108.588676,90.624222 
	C115.842949,92.127899 117.477058,93.567223 117.747284,100.789597 
	C118.089554,109.937370 118.096909,119.115799 117.711571,128.258362 
	C117.628059,130.239716 115.694519,133.106735 113.882172,133.903748 
	C93.913269,142.685486 70.530289,137.069031 61.087505,114.880775 
	C54.473980,99.340591 55.192760,83.217201 60.765354,67.560661 
	C65.972939,52.929642 77.172386,45.222816 92.520088,44.214497 
	C107.938316,43.201542 118.502968,50.731876 125.041199,64.394623 
	C125.759155,65.894920 126.258041,67.565750 127.260437,68.841759 
	C127.959572,69.731705 129.345474,70.082123 130.369354,70.643272 
	C130.369354,59.369068 130.369354,48.804455 130.369354,36.922726 
	C128.058502,38.307682 126.529022,38.714005 125.895157,39.697529 
	C123.782944,42.974930 120.837593,43.165604 117.558762,42.450672 
	C115.287735,41.955486 113.053658,41.289566 110.805664,40.690174 
	C90.472466,35.268642 71.550339,36.948685 54.704071,52.206486 
z"/>
<path fill="#000000" opacity="1.000000" stroke="none" 
	d="
M9.508951,1.000000 
	C9.202437,1.974499 8.438466,2.978985 7.600630,3.917532 
	C5.579106,6.182049 3.523055,8.415744 1.240463,10.330934 
	C1.000000,7.082645 1.000000,4.165290 1.000000,1.000000 
	C3.670005,1.000000 6.343954,1.000000 9.508951,1.000000 
z"/>
<path fill="#000000" opacity="1.000000" stroke="none" 
	d="
M181.000000,9.508954 
	C180.025482,9.202463 179.020950,8.438537 178.082413,7.600698 
	C175.817902,5.579161 173.584229,3.523082 171.669067,1.240469 
	C174.917358,1.000000 177.834702,1.000000 181.000000,1.000000 
	C181.000000,3.670005 181.000000,6.343954 181.000000,9.508954 
z"/>
<path fill="#000000" opacity="1.000000" stroke="none" 
	d="
M0.999996,172.491058 
	C1.974488,172.797562 2.978981,173.561523 3.917516,174.399368 
	C6.182052,176.420868 8.415739,178.476944 10.330932,180.759537 
	C7.082646,181.000000 4.165292,181.000000 1.000000,181.000000 
	C1.000000,178.330002 1.000000,175.656052 0.999996,172.491058 
z"/>
<path fill="#000000" opacity="1.000000" stroke="none" 
	d="
M172.491058,181.000000 
	C172.797531,180.025482 173.561447,179.020966 174.399292,178.082443 
	C176.420822,175.817917 178.476898,173.584229 180.759521,171.669067 
	C181.000000,174.917358 181.000000,177.834702 181.000000,181.000000 
	C178.330002,181.000000 175.656052,181.000000 172.491058,181.000000 
z"/>
<path fill="#F9FCFF" opacity="1.000000" stroke="none" 
	d="
M54.966316,51.966404 
	C71.550339,36.948685 90.472466,35.268642 110.805664,40.690174 
	C113.053658,41.289566 115.287735,41.955486 117.558762,42.450672 
	C120.837593,43.165604 123.782944,42.974930 125.895157,39.697529 
	C126.529022,38.714005 128.058502,38.307682 130.369354,36.922726 
	C130.369354,48.804455 130.369354,59.369068 130.369354,70.643272 
	C129.345474,70.082123 127.959572,69.731705 127.260437,68.841759 
	C126.258041,67.565750 125.759155,65.894920 125.041199,64.394623 
	C118.502968,50.731876 107.938316,43.201542 92.520088,44.214497 
	C77.172386,45.222816 65.972939,52.929642 60.765354,67.560661 
	C55.192760,83.217201 54.473980,99.340591 61.087505,114.880775 
	C70.530289,137.069031 93.913269,142.685486 113.882172,133.903748 
	C115.694519,133.106735 117.628059,130.239716 117.711571,128.258362 
	C118.096909,119.115799 118.089554,109.937370 117.747284,100.789597 
	C117.477058,93.567223 115.842949,92.127899 108.588676,90.624222 
	C107.163216,90.328743 105.752716,89.961098 104.213745,89.598068 
	C106.400093,86.675751 139.590424,86.160240 144.055420,88.988182 
	C143.048538,89.493523 142.309113,90.033302 141.484528,90.251915 
	C134.600281,92.077118 132.990402,93.912659 132.899704,100.986465 
	C132.778015,110.478432 133.005859,119.977615 132.715576,129.462433 
	C132.655441,131.427307 131.500275,134.333115 129.974182,135.131439 
	C109.471092,145.856781 80.446480,149.141617 59.266117,133.862335 
	C34.730209,116.162407 31.157433,79.327553 51.679161,55.529850 
	C52.657059,54.395840 53.694408,53.313103 54.966316,51.966404 
z"/>
</svg>