<?xml version="1.0" standalone="no"?>
<!DOCTYPE svg PUBLIC "-//W3C//DTD SVG 20010904//EN"
 "http://www.w3.org/TR/2001/REC-SVG-20010904/DTD/svg10.dtd">
<svg version="1.0" xmlns="http://www.w3.org/2000/svg"
 width="48.000000pt" height="48.000000pt" viewBox="0 0 48.000000 48.000000"
 preserveAspectRatio="xMidYMid meet">

<g transform="translate(0.000000,48.000000) scale(0.100000,-0.100000)"
fill="#2C7DA0" stroke="none">
<path d="M20 460 c-19 -19 -20 -33 -20 -220 0 -187 1 -201 20 -220 19 -19 33
-20 220 -20 187 0 201 1 220 20 19 19 20 33 20 220 0 187 -1 201 -20 220 -19
19 -33 20 -220 20 -187 0 -201 -1 -220 -20z m294 -86 c8 -3 13 -11 10 -18 -3
-9 -20 -12 -53 -8 -44 4 -51 2 -66 -22 -23 -34 -23 -137 0 -172 13 -21 23 -25
53 -22 35 3 37 5 40 41 3 34 1 37 -22 37 -16 0 -26 6 -26 15 0 11 11 15 40 15
l40 0 0 -64 c0 -73 -3 -76 -80 -76 -40 0 -52 4 -69 26 -42 53 -39 187 4 230
18 18 35 24 69 24 24 0 51 -3 60 -6z"/>
</g>
</svg>
