<svg version="1.1" id="Layer_1" xmlns="http://www.w3.org/2000/svg" xmlns:xlink="http://www.w3.org/1999/xlink" x="0px" y="0px"
	 width="100%" viewBox="0 0 905 659" enable-background="new 0 0 905 659" xml:space="preserve">
<path fill="#FFFFFF" opacity="1.000000" stroke="none" 
	d="
M663.000000,660.000000 
	C442.000000,660.000000 221.500000,660.000000 1.000000,660.000000 
	C1.000000,440.333344 1.000000,220.666672 1.000000,1.000000 
	C302.666656,1.000000 604.333313,1.000000 906.000000,1.000000 
	C906.000000,220.666672 906.000000,440.333344 906.000000,660.000000 
	C825.166687,660.000000 744.333313,660.000000 663.000000,660.000000 
M622.303467,555.152527 
	C619.091858,557.016541 616.087219,559.597534 612.625916,560.596252 
	C605.273071,562.718018 601.020264,567.032715 598.999268,575.022705 
	C567.091492,575.056091 535.183777,575.089478 503.276001,575.122864 
	C503.283295,575.930115 503.290619,576.737305 503.297913,577.544556 
	C597.437561,577.544556 691.577148,577.544556 785.716797,577.544556 
	C785.724976,576.741333 785.733215,575.938171 785.741394,575.134949 
	C757.825562,575.094421 729.909668,575.053894 702.318054,574.381226 
	C705.022339,573.238464 707.637573,571.761047 710.446960,571.013428 
	C720.321533,568.385559 728.670288,563.778625 735.193970,555.527161 
	C741.731201,547.258606 743.944519,537.461853 747.110413,527.867676 
	C750.004883,519.095886 753.533569,510.519775 757.119446,501.999146 
	C758.068726,499.743530 760.259460,498.010376 762.329590,495.490204 
	C760.528259,495.250427 759.520935,494.831726 758.675720,495.047577 
	C749.736450,497.330505 740.757263,499.506195 731.968384,502.279572 
	C730.532837,502.732513 729.303284,505.890167 729.133850,507.895325 
	C728.725464,512.728455 729.001526,517.619446 729.001526,522.487061 
	C728.503540,522.577148 728.005554,522.667297 727.507507,522.757385 
	C726.049500,519.852905 724.440002,517.013062 723.168457,514.029114 
	C721.185730,509.376068 719.729492,508.740082 716.233093,512.426147 
	C711.224792,517.705994 706.735779,523.477173 701.992554,529.010742 
	C701.082764,530.072205 700.022949,531.005005 698.943542,531.138733 
	C699.293396,527.663635 699.685608,524.192139 699.986572,520.712830 
	C703.267517,482.786072 705.060669,444.692627 713.036987,407.293579 
	C713.597351,404.666229 712.969177,401.362457 711.790344,398.901733 
	C710.518188,396.246124 710.639648,394.385773 712.146729,392.092102 
	C715.195557,387.452209 717.752258,382.692230 716.067383,376.719513 
	C715.750183,375.594910 716.525024,373.556000 717.479431,372.783722 
	C721.638062,369.418854 721.806763,364.917877 722.014709,360.157867 
	C722.252502,354.715454 723.019470,349.295441 723.576599,343.867798 
	C724.514465,334.731049 725.428406,325.599884 721.351501,316.388885 
	C724.103271,315.819550 725.449829,314.877350 722.831543,312.245941 
	C722.025818,311.436127 721.824768,310.014709 721.375427,308.862244 
	C720.415222,306.399445 719.406006,303.952728 718.543396,301.455719 
	C717.685791,298.973175 716.000427,296.284668 716.362915,293.947815 
	C720.433044,267.705902 724.440613,241.465179 731.371399,215.735947 
	C734.734985,203.249298 737.428040,190.357681 734.936096,177.259003 
	C734.390259,174.389282 732.782471,170.902451 730.527039,169.326370 
	C722.918091,164.009171 714.991211,159.058197 706.789612,154.715820 
	C702.769104,152.587189 699.442932,150.415771 697.814697,146.119598 
	C696.832703,143.528687 695.091431,142.832016 692.341736,143.190399 
	C686.730225,143.921799 681.074585,144.645691 675.431824,144.689697 
	C671.713806,144.718719 670.567139,146.608749 668.957825,149.403519 
	C666.797913,153.154495 663.877686,156.559189 660.848694,159.691727 
	C657.978210,162.660355 654.403687,164.934937 651.387207,167.778244 
	C641.447754,177.147018 631.606628,186.620422 621.763000,196.090317 
	C619.844971,197.935562 617.731262,199.732300 616.389221,201.961609 
	C615.617493,203.243500 616.213867,205.349014 615.625427,207.639908 
	C598.799927,208.786697 581.974365,209.933487 564.332520,211.028168 
	C563.048950,210.757141 561.763916,210.493103 560.482117,210.213959 
	C547.927368,207.479889 535.490295,203.467865 522.791870,202.302780 
	C503.160675,200.501602 483.812927,203.651398 465.360992,211.047119 
	C444.585724,219.374008 426.198151,231.115936 411.820892,248.606949 
	C408.270081,252.926758 404.413971,256.995667 400.005829,261.034058 
	C395.085449,259.010620 389.949677,257.385559 385.295624,254.869476 
	C378.465851,251.177139 370.984467,247.862946 365.576508,242.557236 
	C356.953339,234.097107 349.770782,224.161194 342.081726,214.765320 
	C341.075531,213.535721 340.359894,211.872528 340.047760,210.303162 
	C338.265930,201.344223 336.463715,192.382156 335.023468,183.364456 
	C333.527100,173.995438 323.754364,162.523712 316.027740,162.223846 
	C310.742523,162.018723 305.411133,162.585556 300.126373,163.083145 
	C298.821564,163.206009 297.302216,164.128555 296.416229,165.148148 
	C287.162750,175.797256 278.205872,186.710007 268.767792,197.190369 
	C263.749115,202.763321 258.641449,207.986237 256.346863,215.473541 
	C255.268173,218.993301 252.650604,222.023392 250.876862,225.353394 
	C249.173370,228.551514 246.175049,231.935745 246.356277,235.088135 
	C246.797043,242.755051 244.677261,250.289566 246.810516,258.131165 
	C250.861664,273.022797 253.639465,288.257446 257.224396,303.283264 
	C257.720337,305.362061 259.800537,307.062866 261.352173,309.683136 
	C261.125732,311.793427 261.314178,314.061096 260.585724,315.980896 
	C259.110809,319.868103 258.672699,323.284851 262.622589,326.883789 
	C261.734283,331.278809 260.434174,335.636200 260.028259,340.075348 
	C258.178864,360.300842 256.610657,380.551941 254.879593,400.788513 
	C254.044495,410.550934 253.154144,420.310150 252.133545,430.054596 
	C251.501877,436.085632 246.106979,440.612457 247.454056,447.655609 
	C248.199585,451.553619 245.696396,456.055359 244.729980,460.301422 
	C239.747070,482.193909 234.787582,504.091766 229.159485,525.864136 
	C227.520233,523.416077 225.827667,521.001770 224.251144,518.513977 
	C217.828278,508.378632 209.985870,499.642853 199.490906,492.692322 
	C196.716980,499.028015 194.146912,504.898041 191.576859,510.768066 
	C189.914917,504.375732 189.041656,498.344238 189.134735,492.327698 
	C189.206070,487.715149 188.016602,485.258240 183.395325,483.559021 
	C172.187912,479.438080 160.959274,476.189362 149.134567,477.161133 
	C152.624420,482.812531 156.779266,487.924042 159.167938,493.758636 
	C163.611816,504.613220 167.130722,515.854492 170.843887,526.998352 
	C175.639221,541.390015 182.981049,553.794495 196.363297,561.940308 
	C204.352295,566.803162 213.136780,568.764343 222.773834,570.226135 
	C223.525726,570.458069 224.277603,570.690002 225.152054,571.594666 
	C225.910782,572.542847 226.669510,573.490967 227.906403,575.036682 
	C218.329193,575.036682 209.537979,575.036682 200.746750,575.036682 
	C191.749008,575.036682 182.751266,575.036682 173.753525,575.036682 
	C164.922409,575.036682 156.089447,574.923889 147.260696,575.068726 
	C138.598846,575.210815 129.863480,574.440674 121.294556,576.095093 
	C125.861504,578.911987 401.075134,578.462158 404.478302,575.609680 
	C402.083527,575.370544 400.413544,575.064087 398.742676,575.059021 
	C385.579437,575.019104 372.415558,575.089111 359.253174,574.976685 
	C357.412048,574.960876 355.577820,574.136780 353.810547,572.978455 
	C352.765381,571.244812 352.040253,569.156799 350.602203,567.858276 
	C348.277039,565.758667 345.635773,563.885925 342.857513,562.435364 
	C335.623108,558.658142 336.175476,552.043274 335.689911,545.277771 
	C337.692993,545.406311 339.105988,545.496948 340.807922,545.606140 
	C342.545135,527.033142 344.556915,508.691895 345.872559,490.300842 
	C346.695404,478.798981 350.017853,467.334747 347.079010,455.690460 
	C350.996552,449.987122 347.010193,444.138977 347.458008,438.521606 
	C348.366730,427.123199 350.381256,415.767090 352.623962,404.530090 
	C357.779541,378.698364 360.558960,352.862030 353.940979,326.907776 
	C352.629211,321.763275 350.014648,316.950958 347.898743,311.200195 
	C346.871307,306.466248 345.843842,301.732269 345.654266,296.829102 
	C349.371979,296.363495 353.089661,295.897888 357.221710,295.380402 
	C355.283936,286.110138 353.449371,277.333618 351.502472,268.019714 
	C365.340698,271.622192 378.150177,274.956848 390.959839,279.011444 
	C385.102051,293.638763 380.458649,308.475067 378.749359,324.344421 
	C376.608551,344.220306 378.903809,363.463776 385.292847,382.093842 
	C394.873596,410.030731 411.854279,432.744324 436.248657,449.674500 
	C437.266174,450.380737 438.636475,450.578735 440.073547,451.652435 
	C441.719238,452.783234 443.364899,453.914062 445.407684,455.597137 
	C465.817627,467.087372 487.543030,473.863190 511.951935,474.011292 
	C513.313721,474.012207 514.675537,474.013092 516.953552,474.023560 
	C532.139160,474.000000 546.857117,471.081635 560.960205,465.726685 
	C568.256897,462.956116 574.986328,458.691711 582.697510,455.252625 
	C584.290894,454.174744 585.884338,453.096893 588.124573,451.904022 
	C595.787109,445.731476 603.428772,439.532715 611.129028,433.407532 
	C612.746338,432.121033 614.578674,431.104950 616.533813,430.885895 
	C615.210999,459.180115 613.847046,487.472504 612.596497,515.769958 
	C612.312683,522.192505 609.805420,528.890747 614.575195,534.867859 
	C615.007019,535.408936 614.663452,536.742126 614.409302,537.629883 
	C612.317139,544.937805 614.381470,547.828979 622.025513,548.897888 
	C622.330017,550.893738 622.634521,552.889648 622.303467,555.152527 
M702.777039,120.791557 
	C706.918518,113.222710 708.148804,104.982872 707.055359,96.639427 
	C706.602234,93.182533 704.651489,89.282524 702.151062,86.848160 
	C693.122375,78.057899 671.151611,79.351425 662.828613,88.580925 
	C661.784058,89.739243 660.175720,90.588539 658.665588,91.086319 
	C655.464905,92.141342 654.190735,94.232964 654.299194,97.475769 
	C654.371521,99.637238 654.258423,101.804916 654.086182,104.750687 
	C654.326599,106.184822 654.924622,107.663406 654.752747,109.046310 
	C652.786438,124.865875 661.669373,136.700531 677.357239,138.809433 
	C686.175293,139.994843 701.160400,132.301575 702.777039,120.791557 
M341.084320,120.129341 
	C342.733032,119.566231 344.381714,119.003113 346.091248,118.419220 
	C345.358582,111.318169 342.261444,106.314766 335.499298,103.901245 
	C334.375061,103.500000 333.493286,102.458702 332.442596,101.804504 
	C329.835602,100.181282 327.302002,97.511833 324.547180,97.245453 
	C318.606812,96.671043 312.546021,97.342186 306.024109,97.517372 
	C305.331024,96.787041 304.019928,94.760162 302.163086,93.629501 
	C300.288544,92.488022 297.743042,92.507721 295.718079,91.543053 
	C289.199188,88.437538 283.188995,89.910736 279.725983,95.704544 
	C276.253754,101.513771 277.852325,107.272583 283.596283,111.794655 
	C287.190094,114.623955 290.843658,117.768250 289.039978,123.414131 
	C288.496582,125.115005 288.552612,127.035149 288.497192,128.859818 
	C287.961243,146.503952 307.266479,159.466064 323.455841,152.146301 
	C327.093353,159.017670 330.741577,165.909317 334.831696,173.635742 
	C338.243591,163.611618 339.433502,154.799774 335.572601,145.597321 
	C341.985229,138.257996 344.139008,130.061874 341.084320,120.129341 
M575.130615,472.980591 
	C574.754333,474.923187 574.093140,476.860809 574.059082,478.809387 
	C573.979919,483.344788 576.700684,486.172821 580.540161,487.982483 
	C584.622314,489.906525 588.264954,488.888428 591.545349,485.970856 
	C594.905884,482.982056 595.893127,479.307434 594.498230,475.131805 
	C591.606079,466.474396 582.212891,465.098846 575.130615,472.980591 
M520.940918,483.503448 
	C519.986084,482.866821 519.104797,482.050262 518.063660,481.624573 
	C513.431091,479.730377 507.555695,481.120819 504.959198,484.615997 
	C502.266968,488.240082 502.329163,494.154419 505.095306,497.562561 
	C508.513672,501.774292 513.224365,503.003174 517.893250,500.901245 
	C524.281006,498.025543 525.593323,491.827759 520.940918,483.503448 
M452.616455,483.645660 
	C452.738190,482.162506 453.078094,480.659210 452.943604,479.199677 
	C452.384918,473.137878 448.512939,469.907623 442.108490,469.986603 
	C436.077301,470.061005 432.509460,473.379944 432.012665,479.378235 
	C431.602661,484.328552 434.303253,488.447205 439.078094,490.153809 
	C444.551270,492.110046 448.166412,490.521820 452.616455,483.645660 
z"/>
<path fill="#F1F1F1" opacity="1.000000" stroke="none" 
	d="
M581.972107,455.102234 
	C574.986328,458.691711 568.256897,462.956116 560.960205,465.726685 
	C546.857117,471.081635 532.139160,474.000000 516.584412,473.556213 
	C516.234192,433.082916 516.253052,393.076996 516.633240,353.040710 
	C518.419800,352.567932 519.884033,352.222137 521.263794,351.666718 
	C528.296814,348.835815 532.989563,341.773041 533.002502,334.101685 
	C533.015503,326.370087 528.480042,319.579285 521.291565,316.567108 
	C514.067810,313.540131 506.140259,315.070282 500.654510,320.699921 
	C489.195282,332.459808 496.340851,350.288696 511.068909,353.497009 
	C511.088196,393.955200 511.113190,433.946686 511.138214,473.938171 
	C487.543030,473.863190 465.817627,467.087372 445.294525,454.855774 
	C445.207245,403.100403 445.233124,352.086456 445.621033,301.040771 
	C452.904785,299.427246 458.065460,295.544891 460.756104,288.935120 
	C464.255066,280.339752 460.610443,270.351379 452.572449,265.712097 
	C443.523804,260.489471 433.995209,262.847992 426.561249,271.926941 
	C421.547272,270.527740 416.877472,269.266754 412.049286,267.683319 
	C408.160004,265.300568 404.429108,263.240234 400.698212,261.179932 
	C404.413971,256.995667 408.270081,252.926758 411.820892,248.606949 
	C426.198151,231.115936 444.585724,219.374008 465.360992,211.047119 
	C483.812927,203.651398 503.160675,200.501602 522.791870,202.302780 
	C535.490295,203.467865 547.927368,207.479889 560.482117,210.213959 
	C561.763916,210.493103 563.048950,210.757141 564.878906,211.358002 
	C574.869751,217.083557 584.372986,222.380203 593.730896,227.922195 
	C597.662170,230.250366 601.286011,233.097565 605.142578,236.053253 
	C616.392151,247.665497 626.439148,259.782379 634.024658,273.805725 
	C634.340881,274.390350 635.330688,274.610687 636.027466,275.394226 
	C636.509460,277.485474 636.849121,279.228088 637.454651,280.872772 
	C639.307129,285.904663 641.261780,290.898987 643.075317,296.269714 
	C637.966248,305.658234 639.010010,309.643036 648.354736,317.145020 
	C648.678040,318.372223 648.887024,319.191803 649.045654,320.449707 
	C653.339783,360.048737 643.225464,394.948517 618.263245,425.515198 
	C617.276489,426.723511 616.947449,428.468994 616.311951,429.964203 
	C614.578674,431.104950 612.746338,432.121033 611.129028,433.407532 
	C603.428772,439.532715 595.787109,445.731476 587.712280,451.499512 
	C587.288330,399.744507 587.276611,348.394012 587.607544,296.971008 
	C589.337219,296.355286 590.760254,295.888824 592.105469,295.256683 
	C601.439392,290.870514 605.658997,279.649017 601.469971,270.435730 
	C597.010437,260.627472 585.621521,256.388245 575.955505,260.938629 
	C568.725586,264.342194 564.171143,272.344055 565.091003,280.026733 
	C566.140320,288.791321 572.272644,294.944763 582.063477,297.520752 
	C582.034302,350.358032 582.003174,402.730164 581.972107,455.102234 
z"/>
<path fill="#313042" opacity="1.000000" stroke="none" 
	d="
M348.000885,311.985474 
	C350.014648,316.950958 352.629211,321.763275 353.940979,326.907776 
	C360.558960,352.862030 357.779541,378.698364 352.623962,404.530090 
	C350.381256,415.767090 348.366730,427.123199 347.458008,438.521606 
	C347.010193,444.138977 350.996552,449.987122 347.079010,455.690460 
	C350.017853,467.334747 346.695404,478.798981 345.872559,490.300842 
	C344.556915,508.691895 342.545135,527.033142 340.807922,545.606140 
	C339.105988,545.496948 337.692993,545.406311 335.689911,545.277771 
	C336.175476,552.043274 335.623108,558.658142 342.857513,562.435364 
	C345.635773,563.885925 348.277039,565.758667 350.602203,567.858276 
	C352.040253,569.156799 352.765381,571.244812 353.442749,573.598145 
	C352.204742,574.583496 351.333984,575.267517 350.464355,575.266052 
	C340.221832,575.248901 329.979431,575.129089 319.779175,574.579712 
	C320.266144,568.145752 320.693848,562.167114 321.172852,556.192505 
	C321.251099,555.216492 321.331543,553.544189 321.789581,553.400452 
	C327.775055,551.522522 324.411316,547.019836 325.099854,543.435364 
	C321.216492,542.705444 317.691223,542.042908 314.038544,541.356384 
	C314.038544,539.876282 313.993652,538.722412 314.045258,537.572876 
	C314.888977,518.772766 315.979492,499.979736 316.505859,481.170868 
	C316.799133,470.691833 316.326599,460.178986 315.851013,449.697174 
	C315.672485,445.762512 314.102997,441.897278 313.863007,437.958008 
	C312.718811,419.175507 311.833221,400.377350 310.812134,381.587158 
	C310.495239,375.755493 310.041565,369.931335 309.650482,364.103729 
	C309.194702,364.045898 308.738892,363.988068 308.283081,363.930237 
	C307.823639,365.403015 307.350769,366.871704 306.906860,368.349182 
	C302.365570,383.464386 297.341217,398.456421 293.439301,413.735077 
	C290.071472,426.922394 283.059479,439.247498 283.686951,453.426056 
	C283.718811,454.145996 283.002716,454.903564 282.621094,455.636505 
	C280.553925,459.606842 277.907959,463.385223 276.522675,467.580200 
	C272.723755,479.084473 269.414154,490.751740 265.986938,502.376892 
	C263.096252,512.182129 260.312164,522.018738 257.543884,531.622925 
	C254.297638,531.346802 251.668518,531.123108 248.777206,530.628052 
	C244.389755,529.568420 240.264496,528.780212 235.765533,527.910278 
	C233.534531,527.214966 231.677231,526.601318 229.819916,525.987732 
	C234.787582,504.091766 239.747070,482.193909 244.729980,460.301422 
	C245.696396,456.055359 248.199585,451.553619 247.454056,447.655609 
	C246.106979,440.612457 251.501877,436.085632 252.133545,430.054596 
	C253.154144,420.310150 254.044495,410.550934 254.879593,400.788513 
	C256.610657,380.551941 258.178864,360.300842 260.028259,340.075348 
	C260.434174,335.636200 261.734283,331.278809 262.825806,326.271545 
	C265.462433,321.906647 268.109985,318.272430 270.269775,314.368347 
	C272.479889,310.373199 275.755951,308.942963 280.059570,308.964569 
	C287.690857,309.002838 295.339447,308.631897 302.950378,309.023743 
	C317.978210,309.797394 332.985260,310.974945 348.000885,311.985474 
z"/>
<path fill="#302F42" opacity="1.000000" stroke="none" 
	d="
M616.422852,430.425049 
	C616.947449,428.468994 617.276489,426.723511 618.263245,425.515198 
	C643.225464,394.948517 653.339783,360.048737 649.484680,320.445984 
	C651.298889,320.017548 652.623962,320.046509 653.948853,320.042267 
	C667.116516,320.000000 680.297546,320.296509 693.447327,319.788239 
	C702.621033,319.433624 711.752014,317.974396 720.902100,317.008545 
	C725.428406,325.599884 724.514465,334.731049 723.576599,343.867798 
	C723.019470,349.295441 722.252502,354.715454 722.014709,360.157867 
	C721.806763,364.917877 721.638062,369.418854 717.479431,372.783722 
	C716.525024,373.556000 715.750183,375.594910 716.067383,376.719513 
	C717.752258,382.692230 715.195557,387.452209 712.146729,392.092102 
	C710.639648,394.385773 710.518188,396.246124 711.790344,398.901733 
	C712.969177,401.362457 713.597351,404.666229 713.036987,407.293579 
	C705.060669,444.692627 703.267517,482.786072 699.986572,520.712830 
	C699.685608,524.192139 699.293396,527.663635 698.833252,531.906494 
	C697.539062,536.327576 693.605713,539.827759 698.486328,543.549316 
	C696.782593,545.647888 695.351746,547.410400 693.464233,549.181763 
	C688.330688,549.277039 683.653870,549.363464 678.551392,549.362427 
	C676.537842,549.167786 674.949890,549.060486 673.516052,548.963623 
	C672.418640,543.389771 670.585083,538.345337 670.657227,533.328186 
	C670.741272,527.479797 673.110229,521.687195 673.412476,515.815002 
	C674.784729,489.152832 679.770813,462.647705 675.169556,435.729767 
	C671.876587,416.465668 670.295166,396.908997 667.950073,377.482880 
	C663.602600,389.425293 660.477905,401.628937 656.343994,413.480591 
	C646.675293,441.200073 640.602783,469.368896 642.943665,498.959564 
	C643.414429,504.911560 642.938354,510.946533 642.759583,516.939087 
	C642.630554,521.264709 643.079834,525.846008 641.786926,529.831726 
	C640.488708,533.833618 640.665833,536.933228 642.449890,538.957397 
	C641.249451,542.361816 640.384155,544.815674 639.385559,547.647461 
	C638.703918,547.735657 637.400818,547.904175 635.634277,547.980774 
	C630.775391,547.970215 626.379944,548.051575 621.984436,548.132996 
	C614.381470,547.828979 612.317139,544.937805 614.409302,537.629883 
	C614.663452,536.742126 615.007019,535.408936 614.575195,534.867859 
	C609.805420,528.890747 612.312683,522.192505 612.596497,515.769958 
	C613.847046,487.472504 615.210999,459.180115 616.422852,430.425049 
z"/>
<path fill="#539AB7" opacity="1.000000" stroke="none" 
	d="
M400.352020,261.106995 
	C404.429108,263.240234 408.160004,265.300568 411.877014,268.004028 
	C410.485535,272.062714 409.107971,275.478210 407.450806,279.105560 
	C405.900024,279.725494 404.568756,280.607819 403.368561,280.455750 
	C399.207672,279.928406 395.092316,279.041534 390.959656,278.291504 
	C378.150177,274.956848 365.340698,271.622192 351.502472,268.019714 
	C353.449371,277.333618 355.283936,286.110138 357.221710,295.380402 
	C353.089661,295.897888 349.371979,296.363495 344.781128,296.898956 
	C321.768646,297.644318 299.629242,298.319794 277.241089,298.650940 
	C277.883179,293.595184 279.343781,288.905487 279.524323,284.167053 
	C279.764099,277.875427 279.046234,271.543213 278.662476,265.233154 
	C278.342621,259.974152 277.911285,254.721893 277.529297,249.466644 
	C268.675903,268.291748 274.687195,287.824738 273.787781,307.348511 
	C269.415497,308.106995 265.281403,308.522827 261.147339,308.938660 
	C259.800537,307.062866 257.720337,305.362061 257.224396,303.283264 
	C253.639465,288.257446 250.861664,273.022797 246.810516,258.131165 
	C244.677261,250.289566 246.797043,242.755051 246.356277,235.088135 
	C246.175049,231.935745 249.173370,228.551514 250.876862,225.353394 
	C252.650604,222.023392 255.268173,218.993301 256.346863,215.473541 
	C258.641449,207.986237 263.749115,202.763321 268.767792,197.190369 
	C278.205872,186.710007 287.162750,175.797256 296.416229,165.148148 
	C297.302216,164.128555 298.821564,163.206009 300.126373,163.083145 
	C305.411133,162.585556 310.742523,162.018723 316.027740,162.223846 
	C323.754364,162.523712 333.527100,173.995438 335.023468,183.364456 
	C336.463715,192.382156 338.265930,201.344223 340.047760,210.303162 
	C340.359894,211.872528 341.075531,213.535721 342.081726,214.765320 
	C349.770782,224.161194 356.953339,234.097107 365.576508,242.557236 
	C370.984467,247.862946 378.465851,251.177139 385.295624,254.869476 
	C389.949677,257.385559 395.085449,259.010620 400.352020,261.106995 
z"/>
<path fill="#403E57" opacity="1.000000" stroke="none" 
	d="
M721.126831,316.698730 
	C711.752014,317.974396 702.621033,319.433624 693.447327,319.788239 
	C680.297546,320.296509 667.116516,320.000000 653.948853,320.042267 
	C652.623962,320.046509 651.298889,320.017548 649.534912,320.007690 
	C648.887024,319.191803 648.678040,318.372223 648.822144,317.120911 
	C654.568115,317.324890 659.758240,316.078278 661.936646,311.031799 
	C664.108276,306.001190 668.054932,303.429779 671.970093,300.491425 
	C676.222351,297.300140 680.535583,294.190002 684.825867,291.049438 
	C694.344604,284.081543 703.910339,277.176697 713.364197,270.121918 
	C717.284485,267.196503 718.366333,260.764160 715.400330,258.803650 
	C710.414673,255.508209 705.259766,252.469482 700.261536,249.192276 
	C697.693176,247.508224 695.959839,248.017822 693.869202,250.210831 
	C684.234985,260.316956 674.285339,270.124420 664.729614,280.302521 
	C658.505615,286.931824 652.532776,293.696808 643.176758,295.907898 
	C641.261780,290.898987 639.307129,285.904663 637.454651,280.872772 
	C636.849121,279.228088 636.509460,277.485474 636.242004,275.094238 
	C639.994812,263.562622 644.121094,252.868149 646.915588,241.836334 
	C648.811584,234.351685 648.838257,226.393524 649.855469,217.259857 
	C641.087463,224.077820 633.723755,229.803772 626.179871,235.669891 
	C625.145813,233.962479 624.567444,233.007431 623.998169,231.656555 
	C621.403015,223.201736 618.798706,215.142746 616.194397,207.083771 
	C616.213867,205.349014 615.617493,203.243500 616.389221,201.961609 
	C617.731262,199.732300 619.844971,197.935562 621.763000,196.090317 
	C631.606628,186.620422 641.447754,177.147018 651.387207,167.778244 
	C654.403687,164.934937 657.978210,162.660355 660.848694,159.691727 
	C663.877686,156.559189 666.797913,153.154495 668.957825,149.403519 
	C670.567139,146.608749 671.713806,144.718719 675.431824,144.689697 
	C681.074585,144.645691 686.730225,143.921799 692.341736,143.190399 
	C695.091431,142.832016 696.832703,143.528687 697.814697,146.119598 
	C699.442932,150.415771 702.769104,152.587189 706.789612,154.715820 
	C714.991211,159.058197 722.918091,164.009171 730.527039,169.326370 
	C732.782471,170.902451 734.390259,174.389282 734.936096,177.259003 
	C737.428040,190.357681 734.734985,203.249298 731.371399,215.735947 
	C724.440613,241.465179 720.433044,267.705902 716.362915,293.947815 
	C716.000427,296.284668 717.685791,298.973175 718.543396,301.455719 
	C719.406006,303.952728 720.415222,306.399445 721.375427,308.862244 
	C721.824768,310.014709 722.025818,311.436127 722.831543,312.245941 
	C725.449829,314.877350 724.103271,315.819550 721.126831,316.698730 
z"/>
<path fill="#F2F2F2" opacity="1.000000" stroke="none" 
	d="
M390.959747,278.651489 
	C395.092316,279.041534 399.207672,279.928406 403.368561,280.455750 
	C404.568756,280.607819 405.900024,279.725494 407.837097,279.200745 
	C409.951660,279.693695 412.202667,279.916901 412.713715,280.978058 
	C415.292816,286.333313 419.592377,286.868805 424.696869,286.374878 
	C426.773132,294.830811 432.394684,299.030304 440.062500,301.496674 
	C440.055725,322.736481 440.080841,343.509583 440.047943,364.282623 
	C440.002197,393.192932 439.913025,422.103210 439.842438,451.013489 
	C438.636475,450.578735 437.266174,450.380737 436.248657,449.674500 
	C411.854279,432.744324 394.873596,410.030731 385.292847,382.093842 
	C378.903809,363.463776 376.608551,344.220306 378.749359,324.344421 
	C380.458649,308.475067 385.102051,293.638763 390.959747,278.651489 
z"/>
<path fill="#F2F2F2" opacity="1.000000" stroke="none" 
	d="
M229.489716,525.925903 
	C231.677231,526.601318 233.534531,527.214966 235.846146,528.328796 
	C235.031738,535.045654 233.763016,541.262268 232.095352,547.500244 
	C230.500153,548.413879 228.616165,549.073120 228.221649,550.237183 
	C226.021622,556.728577 224.182251,563.342163 222.219604,569.914001 
	C213.136780,568.764343 204.352295,566.803162 196.363297,561.940308 
	C182.981049,553.794495 175.639221,541.390015 170.843887,526.998352 
	C167.130722,515.854492 163.611816,504.613220 159.167938,493.758636 
	C156.779266,487.924042 152.624420,482.812531 149.134567,477.161133 
	C160.959274,476.189362 172.187912,479.438080 183.395325,483.559021 
	C188.016602,485.258240 189.206070,487.715149 189.134735,492.327698 
	C189.041656,498.344238 189.914917,504.375732 191.576859,510.768066 
	C194.146912,504.898041 196.716980,499.028015 199.490906,492.692322 
	C209.985870,499.642853 217.828278,508.378632 224.251144,518.513977 
	C225.827667,521.001770 227.520233,523.416077 229.489716,525.925903 
z"/>
<path fill="#313043" opacity="1.000000" stroke="none" 
	d="
M335.034546,145.992371 
	C339.433502,154.799774 338.243591,163.611618 334.831696,173.635742 
	C330.741577,165.909317 327.093353,159.017670 323.455841,152.146301 
	C307.266479,159.466064 287.961243,146.503952 288.497192,128.859818 
	C288.552612,127.035149 288.496582,125.115005 289.039978,123.414131 
	C290.843658,117.768250 287.190094,114.623955 283.596283,111.794655 
	C277.852325,107.272583 276.253754,101.513771 279.725983,95.704544 
	C283.188995,89.910736 289.199188,88.437538 295.718079,91.543053 
	C297.743042,92.507721 300.288544,92.488022 302.163086,93.629501 
	C304.019928,94.760162 305.331024,96.787041 306.024109,97.517372 
	C312.546021,97.342186 318.606812,96.671043 324.547180,97.245453 
	C327.302002,97.511833 329.835602,100.181282 332.442596,101.804504 
	C333.493286,102.458702 334.375061,103.500000 335.499298,103.901245 
	C342.261444,106.314766 345.358582,111.318169 346.091248,118.419220 
	C344.381714,119.003113 342.733032,119.566231 340.485657,120.443413 
	C330.339630,125.798996 328.326569,136.267792 335.034546,145.992371 
z"/>
<path fill="#F2F2F2" opacity="1.000000" stroke="none" 
	d="
M693.920898,549.172852 
	C695.351746,547.410400 696.782593,545.647888 698.486328,543.549316 
	C693.605713,539.827759 697.539062,536.327576 698.877625,532.335693 
	C700.022949,531.005005 701.082764,530.072205 701.992554,529.010742 
	C706.735779,523.477173 711.224792,517.705994 716.233093,512.426147 
	C719.729492,508.740082 721.185730,509.376068 723.168457,514.029114 
	C724.440002,517.013062 726.049500,519.852905 727.507507,522.757385 
	C728.005554,522.667297 728.503540,522.577148 729.001526,522.487061 
	C729.001526,517.619446 728.725464,512.728455 729.133850,507.895325 
	C729.303284,505.890167 730.532837,502.732513 731.968384,502.279572 
	C740.757263,499.506195 749.736450,497.330505 758.675720,495.047577 
	C759.520935,494.831726 760.528259,495.250427 762.329590,495.490204 
	C760.259460,498.010376 758.068726,499.743530 757.119446,501.999146 
	C753.533569,510.519775 750.004883,519.095886 747.110413,527.867676 
	C743.944519,537.461853 741.731201,547.258606 735.193970,555.527161 
	C728.670288,563.778625 720.321533,568.385559 710.446960,571.013428 
	C707.637573,571.761047 705.022339,573.238464 701.723877,574.708496 
	C699.688232,575.008484 698.246887,574.981262 696.788452,574.491699 
	C696.769592,570.570007 697.023193,567.081360 696.633057,563.666321 
	C696.488708,562.403137 694.830872,561.312866 693.875000,559.679199 
	C693.898132,555.867371 693.909485,552.520081 693.920898,549.172852 
z"/>
<path fill="#FEB6B6" opacity="1.000000" stroke="none" 
	d="
M702.199402,121.179367 
	C701.160400,132.301575 686.175293,139.994843 677.357239,138.809433 
	C661.669373,136.700531 652.786438,124.865875 654.752747,109.046310 
	C654.924622,107.663406 654.326599,106.184822 654.500366,104.339111 
	C657.369080,102.386696 659.884827,99.441193 662.267761,99.544968 
	C673.361084,100.028114 684.364319,101.599838 690.929626,112.349701 
	C692.714233,115.271736 693.858948,118.584587 695.050049,121.179367 
	C697.612061,121.179367 699.905762,121.179367 702.199402,121.179367 
z"/>
<path fill="#333144" opacity="1.000000" stroke="none" 
	d="
M702.488220,120.985458 
	C699.905762,121.179367 697.612061,121.179367 695.050049,121.179367 
	C693.858948,118.584587 692.714233,115.271736 690.929626,112.349701 
	C684.364319,101.599838 673.361084,100.028114 662.267761,99.544968 
	C659.884827,99.441193 657.369080,102.386696 654.571411,103.948677 
	C654.258423,101.804916 654.371521,99.637238 654.299194,97.475769 
	C654.190735,94.232964 655.464905,92.141342 658.665588,91.086319 
	C660.175720,90.588539 661.784058,89.739243 662.828613,88.580925 
	C671.151611,79.351425 693.122375,78.057899 702.151062,86.848160 
	C704.651489,89.282524 706.602234,93.182533 707.055359,96.639427 
	C708.148804,104.982872 706.918518,113.222710 702.488220,120.985458 
z"/>
<path fill="#9E626B" opacity="1.000000" stroke="none" 
	d="
M277.489868,298.995270 
	C299.629242,298.319794 321.768646,297.644318 344.362213,296.983582 
	C345.843842,301.732269 346.871307,306.466248 347.949829,311.592834 
	C332.985260,310.974945 317.978210,309.797394 302.950378,309.023743 
	C295.339447,308.631897 287.690857,309.002838 280.059570,308.964569 
	C275.755951,308.942963 272.479889,310.373199 270.269775,314.368347 
	C268.109985,318.272430 265.462433,321.906647 262.771637,325.844727 
	C258.672699,323.284851 259.110809,319.868103 260.585724,315.980896 
	C261.314178,314.061096 261.125732,311.793427 261.249756,309.310913 
	C265.281403,308.522827 269.415497,308.106995 274.058167,307.122681 
	C275.541138,304.034546 276.515503,301.514923 277.489868,298.995270 
z"/>
<path fill="#FEB7B7" opacity="1.000000" stroke="none" 
	d="
M615.909912,207.361832 
	C618.798706,215.142746 621.403015,223.201736 623.691589,231.819580 
	C618.047668,237.783615 611.380371,235.820435 605.049622,235.708847 
	C601.286011,233.097565 597.662170,230.250366 593.730896,227.922195 
	C584.372986,222.380203 574.869751,217.083557 565.287048,211.384064 
	C581.974365,209.933487 598.799927,208.786697 615.909912,207.361832 
z"/>
<path fill="#D3D3D3" opacity="1.000000" stroke="none" 
	d="
M319.737030,575.036377 
	C329.979431,575.129089 340.221832,575.248901 350.464355,575.266052 
	C351.333984,575.267517 352.204742,574.583496 353.407684,573.952393 
	C355.577820,574.136780 357.412048,574.960876 359.253174,574.976685 
	C372.415558,575.089111 385.579437,575.019104 398.742676,575.059021 
	C400.413544,575.064087 402.083527,575.370544 404.478302,575.609680 
	C401.075134,578.462158 125.861504,578.911987 121.294556,576.095093 
	C129.863480,574.440674 138.598846,575.210815 147.260696,575.068726 
	C156.089447,574.923889 164.922409,575.036682 173.753525,575.036682 
	C182.751266,575.036682 191.749008,575.036682 200.746750,575.036682 
	C209.537979,575.036682 218.329193,575.036682 227.906403,575.036682 
	C226.669510,573.490967 225.910782,572.542847 225.471405,571.168152 
	C227.823486,569.695312 229.856232,568.648987 231.947693,567.572449 
	C231.033035,572.053467 234.762924,572.807373 238.158112,574.283936 
	C239.192886,574.400574 240.075638,574.246033 241.379669,574.053589 
	C246.478195,574.332031 251.155411,574.648315 256.311859,574.984863 
	C277.773071,575.015564 298.755066,575.025940 319.737030,575.036377 
z"/>
<path fill="#CECECF" opacity="1.000000" stroke="none" 
	d="
M696.805481,574.953979 
	C698.246887,574.981262 699.688232,575.008484 701.561768,575.024536 
	C729.909668,575.053894 757.825562,575.094421 785.741394,575.134949 
	C785.733215,575.938171 785.724976,576.741333 785.716797,577.544556 
	C691.577148,577.544556 597.437561,577.544556 503.297913,577.544556 
	C503.290619,576.737305 503.283295,575.930115 503.276001,575.122864 
	C535.183777,575.089478 567.091492,575.056091 599.923279,575.140015 
	C613.767273,575.148743 626.687195,575.040283 640.099976,574.974670 
	C646.063232,575.011475 651.533752,575.005432 657.459595,575.121338 
	C670.878418,575.146851 683.841980,575.050415 696.805481,574.953979 
z"/>
<path fill="#44425A" opacity="1.000000" stroke="none" 
	d="
M587.264893,297.043549 
	C587.276611,348.394012 587.288330,399.744507 587.388916,451.557007 
	C585.884338,453.096893 584.290894,454.174744 582.334839,455.177429 
	C582.003174,402.730164 582.034302,350.358032 582.495972,297.505798 
	C584.372620,297.031647 585.818726,297.037598 587.264893,297.043549 
z"/>
<path fill="#44425A" opacity="1.000000" stroke="none" 
	d="
M439.958008,451.332947 
	C439.913025,422.103210 440.002197,393.192932 440.047943,364.282623 
	C440.080841,343.509583 440.055725,322.736481 440.494293,301.484985 
	C442.374390,301.028534 443.816681,301.050507 445.259003,301.072479 
	C445.233124,352.086456 445.207245,403.100403 445.095978,454.579620 
	C443.364899,453.914062 441.719238,452.783234 439.958008,451.332947 
z"/>
<path fill="#44425A" opacity="1.000000" stroke="none" 
	d="
M511.545074,473.974731 
	C511.113190,433.946686 511.088196,393.955200 511.501190,353.486237 
	C513.383484,353.029510 514.827698,353.050293 516.271973,353.071045 
	C516.253052,393.076996 516.234192,433.082916 516.126282,473.551422 
	C514.675537,474.013092 513.313721,474.012207 511.545074,473.974731 
z"/>
<path fill="#313042" opacity="1.000000" stroke="none" 
	d="
M639.607178,574.931763 
	C626.687195,575.040283 613.767273,575.148743 600.387329,575.133179 
	C601.020264,567.032715 605.273071,562.718018 612.625916,560.596252 
	C616.087219,559.597534 619.091858,557.016541 622.944397,555.188110 
	C627.749084,556.811462 631.912842,558.399292 636.448242,560.146729 
	C637.722595,561.359802 639.300903,562.350830 639.405090,563.478088 
	C639.755371,567.269836 639.580872,571.110107 639.607178,574.931763 
z"/>
<path fill="#333144" opacity="1.000000" stroke="none" 
	d="
M238.006088,574.012756 
	C234.762924,572.807373 231.033035,572.053467 231.947693,567.572449 
	C229.856232,568.648987 227.823486,569.695312 225.410110,570.831787 
	C224.277603,570.690002 223.525726,570.458069 222.496704,570.070068 
	C224.182251,563.342163 226.021622,556.728577 228.221649,550.237183 
	C228.616165,549.073120 230.500153,548.413879 232.528534,547.651611 
	C236.657120,548.256958 239.953568,548.732178 243.576691,549.522339 
	C242.381500,555.598755 245.479889,559.356506 249.413101,562.843628 
	C251.141037,564.375549 253.065567,565.955566 254.093231,567.933350 
	C255.175461,570.016052 255.293365,572.599792 255.832611,574.964600 
	C251.155411,574.648315 246.478195,574.332031 241.015121,573.952576 
	C239.488205,573.930542 238.747147,573.971680 238.006088,574.012756 
z"/>
<path fill="#E7E7E7" opacity="1.000000" stroke="none" 
	d="
M575.299072,472.625183 
	C582.212891,465.098846 591.606079,466.474396 594.498230,475.131805 
	C595.893127,479.307434 594.905884,482.982056 591.545349,485.970856 
	C588.264954,488.888428 584.622314,489.906525 580.540161,487.982483 
	C576.700684,486.172821 573.979919,483.344788 574.059082,478.809387 
	C574.093140,476.860809 574.754333,474.923187 575.299072,472.625183 
z"/>
<path fill="#E7E7E7" opacity="1.000000" stroke="none" 
	d="
M521.195923,483.801086 
	C525.593323,491.827759 524.281006,498.025543 517.893250,500.901245 
	C513.224365,503.003174 508.513672,501.774292 505.095306,497.562561 
	C502.329163,494.154419 502.266968,488.240082 504.959198,484.615997 
	C507.555695,481.120819 513.431091,479.730377 518.063660,481.624573 
	C519.104797,482.050262 519.986084,482.866821 521.195923,483.801086 
z"/>
<path fill="#E7E7E7" opacity="1.000000" stroke="none" 
	d="
M452.444550,484.001404 
	C448.166412,490.521820 444.551270,492.110046 439.078094,490.153809 
	C434.303253,488.447205 431.602661,484.328552 432.012665,479.378235 
	C432.509460,473.379944 436.077301,470.061005 442.108490,469.986603 
	C448.512939,469.907623 452.384918,473.137878 452.943604,479.199677 
	C453.078094,480.659210 452.738190,482.162506 452.444550,484.001404 
z"/>
<path fill="#9E626B" opacity="1.000000" stroke="none" 
	d="
M335.303589,145.794846 
	C328.326569,136.267792 330.339630,125.798996 340.232605,120.736794 
	C344.139008,130.061874 341.985229,138.257996 335.303589,145.794846 
z"/>
<path fill="#FDB5B5" opacity="1.000000" stroke="none" 
	d="
M636.076599,559.987122 
	C631.912842,558.399292 627.749084,556.811462 623.262146,555.054565 
	C622.634521,552.889648 622.330017,550.893738 622.005005,548.515442 
	C626.379944,548.051575 630.775391,547.970215 635.629639,548.436646 
	C636.084534,552.652039 636.080566,556.319580 636.076599,559.987122 
z"/>
<path fill="#FDB5B5" opacity="1.000000" stroke="none" 
	d="
M643.075317,296.269714 
	C652.532776,293.696808 658.505615,286.931824 664.729614,280.302521 
	C674.285339,270.124420 684.234985,260.316956 693.869202,250.210831 
	C695.959839,248.017822 697.693176,247.508224 700.261536,249.192276 
	C705.259766,252.469482 710.414673,255.508209 715.400330,258.803650 
	C718.366333,260.764160 717.284485,267.196503 713.364197,270.121918 
	C703.910339,277.176697 694.344604,284.081543 684.825867,291.049438 
	C680.535583,294.190002 676.222351,297.300140 671.970093,300.491425 
	C668.054932,303.429779 664.108276,306.001190 661.936646,311.031799 
	C659.758240,316.078278 654.568115,317.324890 648.707764,316.713318 
	C639.010010,309.643036 637.966248,305.658234 643.075317,296.269714 
z"/>
<path fill="#FDFDFD" opacity="1.000000" stroke="none" 
	d="
M605.142578,236.053253 
	C611.380371,235.820435 618.047668,237.783615 623.682434,232.215393 
	C624.567444,233.007431 625.145813,233.962479 626.179871,235.669891 
	C633.723755,229.803772 641.087463,224.077820 649.855469,217.259857 
	C648.838257,226.393524 648.811584,234.351685 646.915588,241.836334 
	C644.121094,252.868149 639.994812,263.562622 636.221191,274.700775 
	C635.330688,274.610687 634.340881,274.390350 634.024658,273.805725 
	C626.439148,259.782379 616.392151,247.665497 605.142578,236.053253 
z"/>
<path fill="#559CB8" opacity="1.000000" stroke="none" 
	d="
M516.633240,353.040710 
	C514.827698,353.050293 513.383484,353.029510 511.506897,353.019531 
	C496.340851,350.288696 489.195282,332.459808 500.654510,320.699921 
	C506.140259,315.070282 514.067810,313.540131 521.291565,316.567108 
	C528.480042,319.579285 533.015503,326.370087 533.002502,334.101685 
	C532.989563,341.773041 528.296814,348.835815 521.263794,351.666718 
	C519.884033,352.222137 518.419800,352.567932 516.633240,353.040710 
M523.978394,327.354980 
	C522.597717,327.462128 520.746277,327.038666 519.920532,327.771271 
	C516.871216,330.476746 514.161072,333.564453 511.285736,336.547485 
	C509.651306,334.546417 508.516510,333.157043 507.381714,331.767700 
	C506.776306,332.126312 506.170898,332.484955 505.565491,332.843597 
	C506.949280,335.697571 508.333038,338.551575 509.051636,340.033630 
	C514.066895,335.959290 518.928894,332.009521 523.978394,327.354980 
z"/>
<path fill="#559CB8" opacity="1.000000" stroke="none" 
	d="
M587.607544,296.971008 
	C585.818726,297.037598 584.372620,297.031647 582.493958,297.040649 
	C572.272644,294.944763 566.140320,288.791321 565.091003,280.026733 
	C564.171143,272.344055 568.725586,264.342194 575.955505,260.938629 
	C585.621521,256.388245 597.010437,260.627472 601.469971,270.435730 
	C605.658997,279.649017 601.439392,290.870514 592.105469,295.256683 
	C590.760254,295.888824 589.337219,296.355286 587.607544,296.971008 
M585.140137,280.716583 
	C588.198364,277.458984 591.256653,274.201416 594.314880,270.943817 
	C593.757874,270.410522 593.200867,269.877258 592.643860,269.343964 
	C588.754028,272.951935 584.864258,276.559906 580.981445,280.161377 
	C579.663818,278.551270 578.522156,277.156250 577.380493,275.761200 
	C576.811157,276.114258 576.241760,276.467316 575.672363,276.820343 
	C577.102722,279.716736 578.533081,282.613098 580.393311,286.379883 
	C582.395874,284.016479 583.548889,282.655701 585.140137,280.716583 
z"/>
<path fill="#559CB8" opacity="1.000000" stroke="none" 
	d="
M445.621033,301.040771 
	C443.816681,301.050507 442.374390,301.028534 440.500275,301.018250 
	C432.394684,299.030304 426.773132,294.830811 424.919861,286.084412 
	C429.870239,280.415985 430.166748,278.257080 426.905426,272.065125 
	C433.995209,262.847992 443.523804,260.489471 452.572449,265.712097 
	C460.610443,270.351379 464.255066,280.339752 460.756104,288.935120 
	C458.065460,295.544891 452.904785,299.427246 445.621033,301.040771 
M443.243439,285.857605 
	C446.599213,282.232300 449.954987,278.606964 453.310730,274.981659 
	C452.936127,274.601135 452.561523,274.220612 452.186920,273.840088 
	C446.893005,275.651733 444.328705,281.157562 439.984985,284.191254 
	C438.629974,282.532990 437.496613,281.145996 436.363281,279.759003 
	C435.758179,280.120789 435.153076,280.482574 434.547974,280.844391 
	C435.938782,283.702637 437.329590,286.560852 438.720398,289.419098 
	C439.441101,289.797424 440.161774,290.175720 440.882446,290.554047 
	C441.524872,289.185516 442.167328,287.816956 443.243439,285.857605 
z"/>
<path fill="#A0646D" opacity="1.000000" stroke="none" 
	d="
M426.561249,271.926941 
	C430.166748,278.257080 429.870239,280.415985 424.849243,285.703888 
	C419.592377,286.868805 415.292816,286.333313 412.713715,280.978058 
	C412.202667,279.916901 409.951660,279.693695 408.116699,278.988892 
	C409.107971,275.478210 410.485535,272.062714 412.035400,268.326477 
	C416.877472,269.266754 421.547272,270.527740 426.561249,271.926941 
z"/>
<path fill="#FEFEFE" opacity="1.000000" stroke="none" 
	d="
M256.311859,574.984924 
	C255.293365,572.599792 255.175461,570.016052 254.093231,567.933350 
	C253.065567,565.955566 251.141037,564.375549 249.413101,562.843628 
	C245.479889,559.356506 242.381500,555.598755 243.610580,549.097412 
	C245.225006,542.538208 247.132187,536.718872 249.039398,530.899475 
	C251.668518,531.123108 254.297638,531.346802 257.543884,531.622925 
	C260.312164,522.018738 263.096252,512.182129 265.986938,502.376892 
	C269.414154,490.751740 272.723755,479.084473 276.522675,467.580200 
	C277.907959,463.385223 280.553925,459.606842 282.621094,455.636505 
	C283.002716,454.903564 283.718811,454.145996 283.686951,453.426056 
	C283.059479,439.247498 290.071472,426.922394 293.439301,413.735077 
	C297.341217,398.456421 302.365570,383.464386 306.906860,368.349182 
	C307.350769,366.871704 307.823639,365.403015 308.283081,363.930237 
	C308.738892,363.988068 309.194702,364.045898 309.650482,364.103729 
	C310.041565,369.931335 310.495239,375.755493 310.812134,381.587158 
	C311.833221,400.377350 312.718811,419.175507 313.863007,437.958008 
	C314.102997,441.897278 315.672485,445.762512 315.851013,449.697174 
	C316.326599,460.178986 316.799133,470.691833 316.505859,481.170868 
	C315.979492,499.979736 314.888977,518.772766 314.045258,537.572876 
	C313.993652,538.722412 314.038544,539.876282 314.038544,541.356384 
	C317.691223,542.042908 321.216492,542.705444 325.099854,543.435364 
	C324.411316,547.019836 327.775055,551.522522 321.789581,553.400452 
	C321.331543,553.544189 321.251099,555.216492 321.172852,556.192505 
	C320.693848,562.167114 320.266144,568.145752 319.779175,574.579712 
	C298.755066,575.025940 277.773071,575.015564 256.311859,574.984924 
z"/>
<path fill="#A0646D" opacity="1.000000" stroke="none" 
	d="
M248.777191,530.628052 
	C247.132187,536.718872 245.225006,542.538208 243.283920,548.782471 
	C239.953568,548.732178 236.657120,548.256958 232.927490,547.630310 
	C233.763016,541.262268 235.031738,535.045654 236.219849,528.410522 
	C240.264496,528.780212 244.389755,529.568420 248.777191,530.628052 
z"/>
<path fill="#FDFDFD" opacity="1.000000" stroke="none" 
	d="
M636.448242,560.146729 
	C636.080566,556.319580 636.084534,552.652039 636.093079,548.528564 
	C637.400818,547.904175 638.703918,547.735657 639.385559,547.647461 
	C640.384155,544.815674 641.249451,542.361816 642.449890,538.957397 
	C640.665833,536.933228 640.488708,533.833618 641.786926,529.831726 
	C643.079834,525.846008 642.630554,521.264709 642.759583,516.939087 
	C642.938354,510.946533 643.414429,504.911560 642.943665,498.959564 
	C640.602783,469.368896 646.675293,441.200073 656.343994,413.480591 
	C660.477905,401.628937 663.602600,389.425293 667.950073,377.482880 
	C670.295166,396.908997 671.876587,416.465668 675.169556,435.729767 
	C679.770813,462.647705 674.784729,489.152832 673.412476,515.815002 
	C673.110229,521.687195 670.741272,527.479797 670.657227,533.328186 
	C670.585083,538.345337 672.418640,543.389771 673.516052,548.963623 
	C674.949890,549.060486 676.537842,549.167786 678.611938,549.702698 
	C679.391968,551.726501 679.685791,553.322693 679.664429,555.055542 
	C676.418762,556.995728 673.702026,559.541077 670.516479,560.458313 
	C662.202454,562.852295 658.461914,566.454285 657.004211,574.999390 
	C651.533752,575.005432 646.063232,575.011475 640.099976,574.974670 
	C639.580872,571.110107 639.755371,567.269836 639.405090,563.478088 
	C639.300903,562.350830 637.722595,561.359802 636.448242,560.146729 
z"/>
<path fill="#FDB5B5" opacity="1.000000" stroke="none" 
	d="
M679.979675,554.918823 
	C679.685791,553.322693 679.391968,551.726501 679.037598,549.790161 
	C683.653870,549.363464 688.330688,549.277039 693.464233,549.181763 
	C693.909485,552.520081 693.898132,555.867371 693.499146,559.711792 
	C688.734192,558.445618 684.356934,556.682190 679.979675,554.918823 
z"/>
<path fill="#F7FAFB" opacity="1.000000" stroke="none" 
	d="
M277.241089,298.650940 
	C276.515503,301.514923 275.541138,304.034546 274.296417,306.780029 
	C274.687195,287.824738 268.675903,268.291748 277.529297,249.466644 
	C277.911285,254.721893 278.342621,259.974152 278.662476,265.233154 
	C279.046234,271.543213 279.764099,277.875427 279.524323,284.167053 
	C279.343781,288.905487 277.883179,293.595184 277.241089,298.650940 
z"/>
<path fill="#333144" opacity="1.000000" stroke="none" 
	d="
M679.664429,555.055542 
	C684.356934,556.682190 688.734192,558.445618 693.487366,560.176392 
	C694.830872,561.312866 696.488708,562.403137 696.633057,563.666321 
	C697.023193,567.081360 696.769592,570.570007 696.788452,574.491699 
	C683.841980,575.050415 670.878418,575.146851 657.459595,575.121338 
	C658.461914,566.454285 662.202454,562.852295 670.516479,560.458313 
	C673.702026,559.541077 676.418762,556.995728 679.664429,555.055542 
z"/>
<path fill="#FFFFFF" opacity="1.000000" stroke="none" 
	d="
M238.158112,574.283936 
	C238.747147,573.971680 239.488205,573.930542 240.593811,573.990479 
	C240.075638,574.246033 239.192886,574.400574 238.158112,574.283936 
z"/>
<path fill="#F7FAFB" opacity="1.000000" stroke="none" 
	d="
M523.884644,327.707367 
	C518.928894,332.009521 514.066895,335.959290 509.051636,340.033630 
	C508.333038,338.551575 506.949280,335.697571 505.565491,332.843597 
	C506.170898,332.484955 506.776306,332.126312 507.381714,331.767700 
	C508.516510,333.157043 509.651306,334.546417 511.285736,336.547485 
	C514.161072,333.564453 516.871216,330.476746 519.920532,327.771271 
	C520.746277,327.038666 522.597717,327.462128 523.884644,327.707367 
z"/>
<path fill="#F7FAFB" opacity="1.000000" stroke="none" 
	d="
M584.921021,281.005768 
	C583.548889,282.655701 582.395874,284.016479 580.393311,286.379883 
	C578.533081,282.613098 577.102722,279.716736 575.672363,276.820343 
	C576.241760,276.467316 576.811157,276.114258 577.380493,275.761200 
	C578.522156,277.156250 579.663818,278.551270 580.981445,280.161377 
	C584.864258,276.559906 588.754028,272.951935 592.643860,269.343964 
	C593.200867,269.877258 593.757874,270.410522 594.314880,270.943817 
	C591.256653,274.201416 588.198364,277.458984 584.921021,281.005768 
z"/>
<path fill="#F7FAFB" opacity="1.000000" stroke="none" 
	d="
M443.026611,286.153015 
	C442.167328,287.816956 441.524872,289.185516 440.882446,290.554047 
	C440.161774,290.175720 439.441101,289.797424 438.720398,289.419098 
	C437.329590,286.560852 435.938782,283.702637 434.547974,280.844391 
	C435.153076,280.482574 435.758179,280.120789 436.363281,279.759003 
	C437.496613,281.145996 438.629974,282.532990 439.984985,284.191254 
	C444.328705,281.157562 446.893005,275.651733 452.186920,273.840088 
	C452.561523,274.220612 452.936127,274.601135 453.310730,274.981659 
	C449.954987,278.606964 446.599213,282.232300 443.026611,286.153015 
z"/>
</svg>