<?xml version="1.0" standalone="no"?>
<!DOCTYPE svg PUBLIC "-//W3C//DTD SVG 20010904//EN"
 "http://www.w3.org/TR/2001/REC-SVG-20010904/DTD/svg10.dtd">
<svg version="1.0" xmlns="http://www.w3.org/2000/svg"
 width="2000.000000pt" height="2000.000000pt" viewBox="0 0 2000.000000 2000.000000"
 preserveAspectRatio="xMidYMid meet">

<g transform="translate(0.000000,2000.000000) scale(0.100000,-0.100000)"
fill="#2C7DA0" stroke="none">
<path d="M13890 17533 c-165 -21 -399 -92 -539 -163 -297 -149 -569 -417 -719
-709 -277 -536 -250 -1122 76 -1659 134 -219 197 -307 295 -409 234 -243 484
-389 798 -467 150 -37 235 -47 404 -47 702 0 1322 446 1548 1111 69 201 82
287 81 535 0 246 -12 321 -80 524 -59 178 -104 261 -309 571 -234 353 -599
597 -1033 691 -75 16 -141 21 -292 24 -107 2 -211 1 -230 -2z m465 -328 c266
-59 477 -175 671 -369 197 -197 317 -420 371 -694 23 -118 23 -366 0 -484
-111 -560 -544 -982 -1105 -1074 -127 -21 -369 -14 -492 15 -398 92 -736 358
-910 716 -150 309 -176 680 -69 1000 110 329 343 604 649 764 112 58 271 113
380 131 41 6 82 13 90 15 39 10 351 -6 415 -20z"/>
<path d="M13982 16819 c-111 -13 -188 -36 -297 -88 -273 -130 -457 -375 -510
-678 -58 -333 81 -686 349 -888 266 -200 623 -245 926 -116 254 108 442 322
527 598 24 80 27 102 27 253 0 151 -3 172 -28 255 -100 328 -355 570 -678 644
-104 24 -221 31 -316 20z m230 -340 c100 -20 214 -84 292 -163 232 -233 233
-600 1 -831 -323 -323 -859 -183 -991 260 -24 80 -24 229 0 310 61 206 223
366 426 419 66 18 199 20 272 5z"/>
<path d="M13983 16109 c-79 -39 -124 -114 -124 -205 0 -97 60 -186 146 -214
60 -20 156 -9 204 23 64 42 95 97 99 176 6 107 -42 187 -135 226 -52 22 -140
19 -190 -6z"/>
<path d="M13240 13630 l0 -220 -177 -2 -178 -3 -3 -267 -2 -268 -203 0 -202 0
3 -270 3 -270 -173 0 -173 0 3 -260 3 -260 -220 0 c-165 0 -222 -3 -228 -12
-4 -7 -10 -166 -13 -353 l-5 -340 -252 -3 c-231 -2 -275 -7 -243 -27 6 -4 10
-127 10 -336 l0 -329 -254 0 c-254 0 -282 -4 -257 -34 8 -9 10 -113 9 -337
l-3 -324 -222 -3 c-189 -2 -223 -5 -223 -17 0 -8 5 -15 10 -15 7 0 9 -108 8
-317 l-3 -318 -265 -3 c-146 -1 -271 -4 -279 -7 -11 -4 -12 -8 -3 -17 9 -9 12
-116 12 -395 l0 -383 -272 -2 -273 -3 -3 -407 -2 -408 -320 0 -320 0 -2 -477
-3 -478 -320 -3 -320 -2 0 -508 0 -507 -372 -3 c-343 -2 -397 -6 -363 -27 6
-4 10 -175 10 -481 l0 -475 -97 3 -98 3 -12 60 c-6 33 -31 168 -53 300 -118
679 -179 903 -330 1206 -146 292 -348 589 -654 963 -136 165 -607 706 -616
706 -3 0 -31 -14 -62 -30 -31 -17 -91 -39 -134 -51 -97 -24 -273 -38 -283 -20
-4 6 -8 32 -10 59 -2 46 -88 927 -152 1547 -27 273 -35 322 -64 410 -45 138
-186 495 -196 495 -4 0 -17 -15 -28 -34 -19 -30 -42 -42 -203 -107 -213 -86
-326 -153 -379 -223 -52 -68 -154 -271 -320 -636 -104 -228 -184 -384 -287
-565 -285 -495 -472 -838 -472 -864 0 -15 125 -133 168 -158 61 -38 93 -31
148 30 81 90 308 400 458 626 141 211 205 319 354 596 41 75 76 134 78 132 3
-3 16 -117 29 -253 14 -137 29 -292 35 -344 10 -104 26 -5 -166 -1018 -24
-128 -44 -244 -44 -256 0 -30 5 -32 190 -70 l154 -31 9 -40 c104 -495 168
-1219 153 -1725 -6 -193 -61 -1182 -86 -1550 -11 -162 -14 -207 -35 -530 -8
-124 -17 -255 -21 -292 l-6 -68 62 0 c33 0 91 4 128 10 37 5 87 11 112 14 25
3 74 10 110 16 36 5 68 10 72 10 3 0 9 28 12 63 3 34 10 116 16 182 40 450
137 1025 250 1495 83 341 142 710 254 1588 25 189 47 346 50 349 3 4 45 -32
93 -78 49 -46 135 -126 193 -177 58 -52 127 -117 154 -145 95 -102 333 -383
349 -413 30 -59 169 -389 213 -506 51 -136 106 -335 215 -767 l79 -314 0 -333
0 -334 -497 -2 c-386 -2 -497 -6 -501 -15 -2 -7 3 -13 12 -13 14 0 16 -58 16
-580 l0 -580 2435 0 2435 0 0 595 0 595 230 0 230 0 0 519 c0 464 2 520 16
525 9 3 83 6 165 6 l149 0 0 485 0 485 183 2 182 3 5 510 5 510 213 3 212 2 0
475 0 475 181 2 180 3 -1 408 -1 407 161 0 c146 0 181 6 150 25 -6 4 -10 145
-10 391 l0 384 118 0 117 0 -3 335 -3 335 143 0 143 0 -3 350 -3 350 93 0 93
0 -3 345 -3 345 138 0 138 0 -3 350 -3 349 146 3 147 3 -1 263 -2 262 61 0
c55 0 75 10 50 25 -6 4 -10 102 -10 261 l0 254 115 0 c96 0 115 3 115 15 0 8
-3 15 -7 15 -5 0 -7 115 -5 255 l3 255 85 0 c85 0 86 0 80 23 -3 12 -6 118 -6
235 l0 212 -565 0 -565 0 0 -220z m-6255 -9757 c3 -27 8 -58 11 -70 4 -21 0
-23 -33 -23 -30 0 -45 -8 -79 -41 -35 -34 -47 -40 -68 -35 -45 11 -94 62 -101
107 -4 22 -4 43 -1 46 7 7 222 61 248 62 13 1 18 -10 23 -46z"/>
<path d="M5679 12239 c-55 -28 -148 -117 -190 -183 -42 -63 -76 -146 -88 -213
-13 -65 3 -51 17 15 18 87 72 190 136 259 50 55 126 114 159 126 7 2 10 7 7
10 -3 3 -21 -3 -41 -14z"/>
<path d="M5963 12235 c-107 -23 -189 -70 -278 -160 -129 -128 -182 -264 -172
-440 8 -142 59 -261 156 -367 49 -53 49 -54 56 -141 l7 -87 76 41 76 40 59
-16 c76 -21 215 -21 298 0 99 26 176 71 260 155 118 117 169 238 169 405 0
165 -56 301 -170 415 -140 140 -341 198 -537 155z m183 -407 c-4 -62 -9 -146
-13 -185 l-6 -73 -52 0 -52 0 -7 103 c-3 56 -9 139 -13 185 l-6 82 78 0 78 0
-7 -112z m-20 -321 c56 -48 24 -127 -52 -127 -71 0 -102 86 -48 129 35 27 66
26 100 -2z"/>
<path d="M5393 11670 c0 -30 2 -43 4 -27 2 15 2 39 0 55 -2 15 -4 2 -4 -28z"/>
<path d="M4772 11359 c-35 -5 -108 -25 -163 -43 -87 -29 -104 -32 -138 -23
-49 13 -101 -1 -159 -43 -89 -64 -137 -172 -149 -330 -6 -96 0 -116 59 -184
34 -39 35 -39 58 -23 15 10 44 17 72 17 41 0 54 -5 87 -35 l39 -36 13 38 c7
21 13 68 13 105 1 41 5 68 12 68 21 0 54 47 74 105 40 118 57 133 169 148 118
15 147 13 171 -8 19 -18 90 -128 90 -141 0 -3 -13 -10 -30 -15 -28 -10 -38
-28 -24 -41 3 -3 18 -1 34 5 22 8 38 8 64 -1 29 -11 40 -11 63 2 38 19 83 65
83 84 0 13 -3 13 -12 4 -23 -23 -33 -13 -30 31 1 23 -2 49 -7 57 -9 13 -12 12
-25 -5 -18 -24 -18 -24 -39 47 -24 77 -93 177 -137 199 -47 23 -111 29 -188
18z"/>
<path d="M4709 10897 c-37 -25 -51 -57 -24 -57 9 0 25 9 36 19 12 11 36 22 55
26 20 3 34 12 34 20 0 23 -62 18 -101 -8z"/>
<path d="M5027 10813 c-12 -11 -8 -78 5 -91 37 -37 81 13 58 68 -12 29 -45 41
-63 23z"/>
<path d="M4782 10778 c-27 -27 -4 -98 32 -98 32 0 47 51 26 91 -12 21 -40 25
-58 7z"/>
<path d="M4946 10738 c3 -26 11 -73 18 -105 11 -56 12 -58 42 -57 17 1 43 10
58 19 l27 18 -54 56 c-29 31 -63 70 -75 86 l-23 30 7 -47z"/>
<path d="M7258 10763 c-10 -2 -18 -9 -18 -15 0 -6 27 -9 75 -6 55 2 75 0 75
-9 0 -17 -29 -31 -80 -39 -52 -8 -103 -49 -95 -75 7 -20 -25 -102 -44 -113 -6
-4 -11 -14 -11 -22 0 -24 34 0 55 40 15 27 22 33 32 24 7 -6 13 -18 13 -28 0
-32 26 -43 90 -38 33 2 66 10 73 17 10 11 1 12 -50 7 -34 -3 -69 -3 -77 0 -32
12 -2 33 65 44 47 8 69 16 69 26 0 17 6 17 -81 -1 -49 -11 -76 -12 -83 -5 -16
16 4 27 69 39 57 11 85 24 73 37 -3 3 -23 1 -45 -5 -47 -13 -113 -14 -113 -2
0 10 41 25 96 36 40 8 67 36 62 67 -3 21 -8 23 -68 25 -36 0 -73 -1 -82 -4z"/>
<path d="M4342 10663 c31 -5 72 -44 99 -93 22 -43 25 -21 3 26 -21 43 -64 74
-101 73 l-28 -2 27 -4z"/>
<path d="M6435 10285 c-643 -304 -651 -307 -889 -327 -111 -9 -163 -9 -260 2
-67 7 -170 16 -231 19 -98 5 -115 9 -153 34 -24 16 -46 27 -48 24 -5 -5 62
-182 174 -462 51 -127 88 -237 101 -300 42 -199 106 -739 154 -1301 l23 -262
160 -165 c87 -91 160 -164 162 -163 1 2 -13 43 -31 92 -49 127 -124 359 -147
456 -14 56 -27 173 -40 363 -11 154 -34 448 -50 654 -17 205 -30 382 -28 393
2 15 64 44 293 137 560 227 676 284 1205 596 124 73 249 144 277 159 l53 26
-14 33 c-8 17 -26 61 -41 97 -40 95 -77 170 -84 169 -3 0 -267 -124 -586 -274z"/>
<path d="M4730 10517 c0 -39 65 -89 130 -101 35 -6 36 -5 57 44 15 34 18 52
10 57 -6 3 -17 -3 -24 -14 -12 -18 -19 -19 -65 -11 -29 5 -65 16 -80 24 -24
12 -28 12 -28 1z"/>
<path d="M4510 10301 c0 -4 13 -26 28 -47 71 -98 127 -130 209 -121 51 5 48 4
57 40 6 27 6 27 -47 27 -71 0 -131 22 -194 70 -29 22 -53 36 -53 31z"/>
<path d="M4721 9895 c-17 -20 -31 -38 -31 -41 0 -3 18 -31 39 -64 l39 -58 42
-782 42 -782 112 -173 c61 -95 114 -171 118 -169 4 2 24 48 45 102 64 163 69
130 -196 1333 -102 463 -108 499 -98 548 10 51 9 53 -24 87 -18 18 -38 34 -45
34 -7 0 -26 -16 -43 -35z"/>
<path d="M1602 6927 l-292 -504 0 -64 0 -65 438 -223 c240 -123 555 -284 699
-358 l261 -134 30 53 c16 29 89 190 162 358 167 385 218 504 286 658 30 68 54
126 54 130 0 4 -104 57 -230 119 l-230 111 0 54 c0 50 -27 138 -42 138 -13 0
-25 -34 -31 -89 -4 -29 -8 -55 -10 -58 -2 -2 -70 29 -151 68 -166 81 -163 76
-63 135 53 31 70 61 45 82 -18 14 -84 -15 -155 -68 l-52 -40 -206 100 c-114
55 -210 100 -214 100 -3 0 -138 -226 -299 -503z"/>
<path d="M4167 2662 c-26 -29 -145 -302 -140 -322 3 -10 11 -21 17 -23 30 -12
884 -100 907 -94 41 10 79 52 79 86 0 26 -5 31 -47 47 -169 61 -313 128 -313
144 0 6 -7 10 -16 10 -9 0 -27 9 -41 20 -25 20 -25 20 -4 20 12 0 20 4 17 9
-7 10 17 21 47 21 16 0 18 3 9 9 -10 6 -7 12 12 25 25 16 36 56 17 56 -5 0 -7
-8 -5 -17 3 -12 -7 -26 -28 -40 -71 -47 -88 -39 -41 19 l27 33 -26 -23 c-15
-13 -32 -37 -38 -53 -7 -16 -15 -29 -19 -29 -16 0 -31 26 -31 51 0 35 -3 37
-81 45 -61 6 -66 5 -103 -25 -52 -41 -76 -40 -120 9 -40 44 -55 49 -79 22z"/>
<path d="M4735 2591 c17 -3 29 -10 28 -14 -2 -4 -3 -11 -3 -16 0 -5 -8 -12
-17 -14 -17 -4 -17 -5 -1 -6 10 0 22 9 29 20 13 26 -2 39 -41 38 -22 -1 -22
-2 5 -8z"/>
<path d="M4648 2543 c6 -2 18 -2 25 0 6 3 1 5 -13 5 -14 0 -19 -2 -12 -5z"/>
</g>
</svg>
